<svg width="139" height="42" viewBox="0 0 139 42" fill="none" xmlns="http://www.w3.org/2000/svg">
<path d="M43.056 11.344V24.728C43.056 26.8 42.468 28.396 41.292 29.516C40.1347 30.636 38.5667 31.196 36.588 31.196C34.516 31.196 32.8547 30.608 31.604 29.432C30.3533 28.256 29.728 26.5853 29.728 24.42H34.488C34.488 25.2413 34.656 25.8667 34.992 26.296C35.328 26.7067 35.8133 26.912 36.448 26.912C37.0267 26.912 37.4747 26.7253 37.792 26.352C38.1093 25.9787 38.268 25.4373 38.268 24.728V11.344H43.056ZM54.0355 31.224C52.5048 31.224 51.1235 30.8973 49.8915 30.244C48.6782 29.5907 47.7168 28.6573 47.0075 27.444C46.3168 26.2307 45.9715 24.812 45.9715 23.188C45.9715 21.5827 46.3262 20.1733 47.0355 18.96C47.7448 17.728 48.7155 16.7853 49.9475 16.132C51.1795 15.4787 52.5608 15.152 54.0915 15.152C55.6222 15.152 57.0035 15.4787 58.2355 16.132C59.4675 16.7853 60.4382 17.728 61.1475 18.96C61.8568 20.1733 62.2115 21.5827 62.2115 23.188C62.2115 24.7933 61.8475 26.212 61.1195 27.444C60.4102 28.6573 59.4302 29.5907 58.1795 30.244C56.9475 30.8973 55.5662 31.224 54.0355 31.224ZM54.0355 27.08C54.9502 27.08 55.7248 26.744 56.3595 26.072C57.0128 25.4 57.3395 24.4387 57.3395 23.188C57.3395 21.9373 57.0222 20.976 56.3875 20.304C55.7715 19.632 55.0062 19.296 54.0915 19.296C53.1582 19.296 52.3835 19.632 51.7675 20.304C51.1515 20.9573 50.8435 21.9187 50.8435 23.188C50.8435 24.4387 51.1422 25.4 51.7395 26.072C52.3555 26.744 53.1208 27.08 54.0355 27.08ZM80.1796 15.376V31H75.3916V28.872C74.9063 29.5627 74.2436 30.1227 73.4036 30.552C72.5823 30.9627 71.6676 31.168 70.6596 31.168C69.465 31.168 68.4103 30.9067 67.4956 30.384C66.581 29.8427 65.8716 29.068 65.3676 28.06C64.8636 27.052 64.6116 25.8667 64.6116 24.504V15.376H69.3716V23.86C69.3716 24.9053 69.6423 25.7173 70.1836 26.296C70.725 26.8747 71.453 27.164 72.3676 27.164C73.301 27.164 74.0383 26.8747 74.5796 26.296C75.121 25.7173 75.3916 24.9053 75.3916 23.86V15.376H80.1796ZM88.4068 17.98C88.9668 17.1213 89.6668 16.4493 90.5068 15.964C91.3468 15.46 92.2801 15.208 93.3068 15.208V20.276H91.9908C90.7961 20.276 89.9001 20.5373 89.3028 21.06C88.7055 21.564 88.4068 22.46 88.4068 23.748V31H83.6188V15.376H88.4068V17.98ZM105.115 15.208C106.945 15.208 108.401 15.8053 109.483 17C110.585 18.176 111.135 19.8 111.135 21.872V31H106.375V22.516C106.375 21.4707 106.105 20.6587 105.563 20.08C105.022 19.5013 104.294 19.212 103.379 19.212C102.465 19.212 101.737 19.5013 101.195 20.08C100.654 20.6587 100.383 21.4707 100.383 22.516V31H95.5954V15.376H100.383V17.448C100.869 16.7573 101.522 16.216 102.343 15.824C103.165 15.4133 104.089 15.208 105.115 15.208ZM121.575 31.224C120.044 31.224 118.663 30.8973 117.431 30.244C116.217 29.5907 115.256 28.6573 114.547 27.444C113.856 26.2307 113.511 24.812 113.511 23.188C113.511 21.5827 113.865 20.1733 114.575 18.96C115.284 17.728 116.255 16.7853 117.487 16.132C118.719 15.4787 120.1 15.152 121.631 15.152C123.161 15.152 124.543 15.4787 125.775 16.132C127.007 16.7853 127.977 17.728 128.687 18.96C129.396 20.1733 129.751 21.5827 129.751 23.188C129.751 24.7933 129.387 26.212 128.659 27.444C127.949 28.6573 126.969 29.5907 125.719 30.244C124.487 30.8973 123.105 31.224 121.575 31.224ZM121.575 27.08C122.489 27.08 123.264 26.744 123.899 26.072C124.552 25.4 124.879 24.4387 124.879 23.188C124.879 21.9373 124.561 20.976 123.927 20.304C123.311 19.632 122.545 19.296 121.631 19.296C120.697 19.296 119.923 19.632 119.307 20.304C118.691 20.9573 118.383 21.9187 118.383 23.188C118.383 24.4387 118.681 25.4 119.279 26.072C119.895 26.744 120.66 27.08 121.575 27.08ZM134.531 31.224C133.691 31.224 133 30.9813 132.459 30.496C131.936 29.992 131.675 29.376 131.675 28.648C131.675 27.9013 131.936 27.276 132.459 26.772C133 26.268 133.691 26.016 134.531 26.016C135.352 26.016 136.024 26.268 136.547 26.772C137.088 27.276 137.359 27.9013 137.359 28.648C137.359 29.376 137.088 29.992 136.547 30.496C136.024 30.9813 135.352 31.224 134.531 31.224Z" fill="#E85520"/>
<rect x="9" y="13" width="18" height="16" rx="2" stroke="#E85520" stroke-width="4"/>
<rect x="2" y="7" width="18" height="16" rx="2" stroke="#E85520" stroke-width="4"/>
</svg>
